<svg xmlns="http://www.w3.org/2000/svg" xmlns:xlink="http://www.w3.org/1999/xlink" width="36" height="36" viewBox="0 0 36 36">
  <defs>
    <filter id="Union_8" x="0" y="0" width="36" height="36" filterUnits="userSpaceOnUse">
      <feOffset dy="3" input="SourceAlpha"/>
      <feGaussianBlur stdDeviation="3" result="blur"/>
      <feFlood flood-opacity="0.161"/>
      <feComposite operator="in" in2="blur"/>
      <feComposite in="SourceGraphic"/>
    </filter>
    <filter id="Union_8-2" x="0" y="0" width="36" height="36" filterUnits="userSpaceOnUse">
      <feOffset dy="3" input="SourceAlpha"/>
      <feGaussianBlur stdDeviation="3" result="blur-2"/>
      <feFlood flood-color="#fff" flood-opacity="0.161" result="color"/>
      <feComposite operator="out" in="SourceGraphic" in2="blur-2"/>
      <feComposite operator="in" in="color"/>
      <feComposite operator="in" in2="SourceGraphic"/>
    </filter>
  </defs>
  <g id="add" transform="translate(6 3)">
    <g id="Rectangle_38" data-name="Rectangle 38" fill="#fff" stroke="#707070" stroke-width="1" opacity="0">
      <rect width="24" height="24" stroke="none"/>
      <rect x="0.5" y="0.5" width="23" height="23" fill="none"/>
    </g>
    <g id="Groupe_97" data-name="Groupe 97" transform="translate(-250 -238)">
      <g data-type="innerShadowGroup">
        <g transform="matrix(1, 0, 0, 1, 244, 235)" filter="url(#Union_8)">
          <path id="Union_8-3" data-name="Union 8" d="M-3100-631v-7h-7v-4h7v-7h4v7h7v4h-7v7Z" transform="translate(3116 655)" fill="#fff"/>
        </g>
        <g transform="matrix(1, 0, 0, 1, 244, 235)" filter="url(#Union_8-2)">
          <path id="Union_8-4" data-name="Union 8" d="M-3100-631v-7h-7v-4h7v-7h4v7h7v4h-7v7Z" transform="translate(3116 655)" fill="#fff"/>
        </g>
      </g>
    </g>
  </g>
</svg>
