<svg xmlns="http://www.w3.org/2000/svg" xmlns:xlink="http://www.w3.org/1999/xlink" width="42" height="38.607" viewBox="0 0 42 38.607">
  <defs>
    <filter id="Union_11" x="0" y="3.083" width="31.089" height="35.524" filterUnits="userSpaceOnUse">
      <feOffset dy="3" input="SourceAlpha"/>
      <feGaussianBlur stdDeviation="3" result="blur"/>
      <feFlood flood-opacity="0.161"/>
      <feComposite operator="in" in2="blur"/>
      <feComposite in="SourceGraphic"/>
    </filter>
    <filter id="Union_11-2" x="0" y="3.083" width="31.089" height="35.524" filterUnits="userSpaceOnUse">
      <feOffset dy="3" input="SourceAlpha"/>
      <feGaussianBlur stdDeviation="3" result="blur-2"/>
      <feFlood flood-color="#fff" flood-opacity="0.161" result="color"/>
      <feComposite operator="out" in="SourceGraphic" in2="blur-2"/>
      <feComposite operator="in" in="color"/>
      <feComposite operator="in" in2="SourceGraphic"/>
    </filter>
    <filter id="Union_12" x="10.911" y="3.083" width="31.089" height="35.524" filterUnits="userSpaceOnUse">
      <feOffset dy="3" input="SourceAlpha"/>
      <feGaussianBlur stdDeviation="3" result="blur-3"/>
      <feFlood flood-opacity="0.161"/>
      <feComposite operator="in" in2="blur-3"/>
      <feComposite in="SourceGraphic"/>
    </filter>
    <filter id="Union_12-2" x="10.911" y="3.083" width="31.089" height="35.524" filterUnits="userSpaceOnUse">
      <feOffset dy="3" input="SourceAlpha"/>
      <feGaussianBlur stdDeviation="3" result="blur-4"/>
      <feFlood flood-color="#fff" flood-opacity="0.161" result="color-2"/>
      <feComposite operator="out" in="SourceGraphic" in2="blur-4"/>
      <feComposite operator="in" in="color-2"/>
      <feComposite operator="in" in2="SourceGraphic"/>
    </filter>
    <filter id="Union_5" x="3.911" y="0" width="34.178" height="38.607" filterUnits="userSpaceOnUse">
      <feOffset dy="3" input="SourceAlpha"/>
      <feGaussianBlur stdDeviation="3" result="blur-5"/>
      <feFlood flood-opacity="0.161"/>
      <feComposite operator="in" in2="blur-5"/>
      <feComposite in="SourceGraphic"/>
    </filter>
    <filter id="Union_5-2" x="3.911" y="0" width="34.178" height="38.607" filterUnits="userSpaceOnUse">
      <feOffset dy="3" input="SourceAlpha"/>
      <feGaussianBlur stdDeviation="3" result="blur-6"/>
      <feFlood flood-color="#fff" flood-opacity="0.161" result="color-3"/>
      <feComposite operator="out" in="SourceGraphic" in2="blur-6"/>
      <feComposite operator="in" in="color-3"/>
      <feComposite operator="in" in2="SourceGraphic"/>
    </filter>
  </defs>
  <g id="Groupe_103" data-name="Groupe 103" transform="translate(16 -12)">
    <g data-type="innerShadowGroup">
      <g transform="matrix(1, 0, 0, 1, -16, 12)" filter="url(#Union_11)">
        <path id="Union_11-3" data-name="Union 11" d="M0,14.724A6.755,6.755,0,0,1,4.287,8.376,4.543,4.543,0,0,1,2.176,4.512,4.442,4.442,0,0,1,6.545,0a4.442,4.442,0,0,1,4.368,4.512A4.543,4.543,0,0,1,8.8,8.376a6.755,6.755,0,0,1,4.287,6.347c0,1.867-3.272,2.8-6.545,2.8S0,16.59,0,14.724Z" transform="translate(9 9.08)" fill="#fff"/>
      </g>
      <g transform="matrix(1, 0, 0, 1, -16, 12)" filter="url(#Union_11-2)">
        <path id="Union_11-4" data-name="Union 11" d="M0,14.724A6.755,6.755,0,0,1,4.287,8.376,4.543,4.543,0,0,1,2.176,4.512,4.442,4.442,0,0,1,6.545,0a4.442,4.442,0,0,1,4.368,4.512A4.543,4.543,0,0,1,8.8,8.376a6.755,6.755,0,0,1,4.287,6.347c0,1.867-3.272,2.8-6.545,2.8S0,16.59,0,14.724Z" transform="translate(9 9.08)" fill="#fff"/>
      </g>
    </g>
    <g data-type="innerShadowGroup">
      <g transform="matrix(1, 0, 0, 1, -16, 12)" filter="url(#Union_12)">
        <path id="Union_12-3" data-name="Union 12" d="M0,14.724A6.755,6.755,0,0,1,4.287,8.376,4.543,4.543,0,0,1,2.176,4.512,4.442,4.442,0,0,1,6.545,0a4.442,4.442,0,0,1,4.368,4.512A4.543,4.543,0,0,1,8.8,8.376a6.755,6.755,0,0,1,4.287,6.347c0,1.867-3.272,2.8-6.545,2.8S0,16.59,0,14.724Z" transform="translate(19.91 9.08)" fill="#fff"/>
      </g>
      <g transform="matrix(1, 0, 0, 1, -16, 12)" filter="url(#Union_12-2)">
        <path id="Union_12-4" data-name="Union 12" d="M0,14.724A6.755,6.755,0,0,1,4.287,8.376,4.543,4.543,0,0,1,2.176,4.512,4.442,4.442,0,0,1,6.545,0a4.442,4.442,0,0,1,4.368,4.512A4.543,4.543,0,0,1,8.8,8.376a6.755,6.755,0,0,1,4.287,6.347c0,1.867-3.272,2.8-6.545,2.8S0,16.59,0,14.724Z" transform="translate(19.91 9.08)" fill="#fff"/>
      </g>
    </g>
    <g data-type="innerShadowGroup">
      <g transform="matrix(1, 0, 0, 1, -16, 12)" filter="url(#Union_5)">
        <path id="Union_5-3" data-name="Union 5" d="M0,17.314A7.96,7.96,0,0,1,5.3,9.85,5.286,5.286,0,0,1,2.69,5.306,5.354,5.354,0,0,1,8.089,0a5.354,5.354,0,0,1,5.4,5.306A5.286,5.286,0,0,1,10.879,9.85a7.96,7.96,0,0,1,5.3,7.464c0,2.2-4.045,3.293-8.089,3.293S0,19.509,0,17.314Z" transform="translate(12.91 6)" fill="#fff"/>
      </g>
      <g transform="matrix(1, 0, 0, 1, -16, 12)" filter="url(#Union_5-2)">
        <path id="Union_5-4" data-name="Union 5" d="M0,17.314A7.96,7.96,0,0,1,5.3,9.85,5.286,5.286,0,0,1,2.69,5.306,5.354,5.354,0,0,1,8.089,0a5.354,5.354,0,0,1,5.4,5.306A5.286,5.286,0,0,1,10.879,9.85a7.96,7.96,0,0,1,5.3,7.464c0,2.2-4.045,3.293-8.089,3.293S0,19.509,0,17.314Z" transform="translate(12.91 6)" fill="#fff"/>
      </g>
    </g>
  </g>
</svg>
