<svg xmlns="http://www.w3.org/2000/svg" xmlns:xlink="http://www.w3.org/1999/xlink" width="41.334" height="41.334" viewBox="0 0 41.334 41.334">
  <defs>
    <filter id="search" x="0" y="0" width="41.334" height="41.334" filterUnits="userSpaceOnUse">
      <feOffset dx="3" dy="3" input="SourceAlpha"/>
      <feGaussianBlur stdDeviation="3" result="blur"/>
      <feFlood flood-opacity="0.161"/>
      <feComposite operator="in" in2="blur"/>
      <feComposite in="SourceGraphic"/>
    </filter>
    <filter id="search-2" x="0" y="0" width="41.334" height="41.334" filterUnits="userSpaceOnUse">
      <feOffset dx="3" dy="3" input="SourceAlpha"/>
      <feGaussianBlur stdDeviation="3" result="blur-2"/>
      <feFlood flood-color="#fff" flood-opacity="0.161" result="color"/>
      <feComposite operator="out" in="SourceGraphic" in2="blur-2"/>
      <feComposite operator="in" in="color"/>
      <feComposite operator="in" in2="SourceGraphic"/>
    </filter>
  </defs>
  <g data-type="innerShadowGroup">
    <g transform="matrix(1, 0, 0, 1, 0, 0)" filter="url(#search)">
      <path id="search-3" data-name="search" d="M4.829,18.514V13.338a1.482,1.482,0,0,1,.11-.562A6.485,6.485,0,1,1,11.1,1.9,6.481,6.481,0,0,1,7.718,12.85a1.484,1.484,0,0,1,.082.488v5.176a1.486,1.486,0,0,1-2.972,0ZM2.275,6.482A4.225,4.225,0,1,0,6.5,2.269,4.224,4.224,0,0,0,2.275,6.482Z" transform="translate(6 15.19) rotate(-45)" fill="#fff"/>
    </g>
    <g transform="matrix(1, 0, 0, 1, 0, 0)" filter="url(#search-2)">
      <path id="search-4" data-name="search" d="M4.829,18.514V13.338a1.482,1.482,0,0,1,.11-.562A6.485,6.485,0,1,1,11.1,1.9,6.481,6.481,0,0,1,7.718,12.85a1.484,1.484,0,0,1,.082.488v5.176a1.486,1.486,0,0,1-2.972,0ZM2.275,6.482A4.225,4.225,0,1,0,6.5,2.269,4.224,4.224,0,0,0,2.275,6.482Z" transform="translate(6 15.19) rotate(-45)" fill="#fff"/>
    </g>
  </g>
</svg>
