<svg xmlns="http://www.w3.org/2000/svg" xmlns:xlink="http://www.w3.org/1999/xlink" width="42" height="42" viewBox="0 0 42 42">
  <defs>
    <filter id="Rectangle_59" x="20.87" y="2.087" width="21.13" height="22.174" filterUnits="userSpaceOnUse">
      <feOffset dy="3" input="SourceAlpha"/>
      <feGaussianBlur stdDeviation="3" result="blur"/>
      <feFlood flood-opacity="0.161"/>
      <feComposite operator="in" in2="blur"/>
      <feComposite in="SourceGraphic"/>
    </filter>
    <filter id="Rectangle_59-2" x="20.87" y="2.087" width="21.13" height="22.174" filterUnits="userSpaceOnUse">
      <feOffset dy="3" input="SourceAlpha"/>
      <feGaussianBlur stdDeviation="3" result="blur-2"/>
      <feFlood flood-color="#fff" flood-opacity="0.161" result="color"/>
      <feComposite operator="out" in="SourceGraphic" in2="blur-2"/>
      <feComposite operator="in" in="color"/>
      <feComposite operator="in" in2="SourceGraphic"/>
    </filter>
    <filter id="Rectangle_67" x="20.87" y="7.304" width="21.13" height="22.174" filterUnits="userSpaceOnUse">
      <feOffset dy="3" input="SourceAlpha"/>
      <feGaussianBlur stdDeviation="3" result="blur-3"/>
      <feFlood flood-opacity="0.161"/>
      <feComposite operator="in" in2="blur-3"/>
      <feComposite in="SourceGraphic"/>
    </filter>
    <filter id="Rectangle_67-2" x="20.87" y="7.304" width="21.13" height="22.174" filterUnits="userSpaceOnUse">
      <feOffset dy="3" input="SourceAlpha"/>
      <feGaussianBlur stdDeviation="3" result="blur-4"/>
      <feFlood flood-color="#fff" flood-opacity="0.161" result="color-2"/>
      <feComposite operator="out" in="SourceGraphic" in2="blur-4"/>
      <feComposite operator="in" in="color-2"/>
      <feComposite operator="in" in2="SourceGraphic"/>
    </filter>
    <filter id="Rectangle_68" x="20.87" y="12.522" width="21.13" height="22.174" filterUnits="userSpaceOnUse">
      <feOffset dy="3" input="SourceAlpha"/>
      <feGaussianBlur stdDeviation="3" result="blur-5"/>
      <feFlood flood-opacity="0.161"/>
      <feComposite operator="in" in2="blur-5"/>
      <feComposite in="SourceGraphic"/>
    </filter>
    <filter id="Rectangle_68-2" x="20.87" y="12.522" width="21.13" height="22.174" filterUnits="userSpaceOnUse">
      <feOffset dy="3" input="SourceAlpha"/>
      <feGaussianBlur stdDeviation="3" result="blur-6"/>
      <feFlood flood-color="#fff" flood-opacity="0.161" result="color-3"/>
      <feComposite operator="out" in="SourceGraphic" in2="blur-6"/>
      <feComposite operator="in" in="color-3"/>
      <feComposite operator="in" in2="SourceGraphic"/>
    </filter>
    <filter id="Rectangle_69" x="20.87" y="17.739" width="21.13" height="22.174" filterUnits="userSpaceOnUse">
      <feOffset dy="3" input="SourceAlpha"/>
      <feGaussianBlur stdDeviation="3" result="blur-7"/>
      <feFlood flood-opacity="0.161"/>
      <feComposite operator="in" in2="blur-7"/>
      <feComposite in="SourceGraphic"/>
    </filter>
    <filter id="Rectangle_69-2" x="20.87" y="17.739" width="21.13" height="22.174" filterUnits="userSpaceOnUse">
      <feOffset dy="3" input="SourceAlpha"/>
      <feGaussianBlur stdDeviation="3" result="blur-8"/>
      <feFlood flood-color="#fff" flood-opacity="0.161" result="color-4"/>
      <feComposite operator="out" in="SourceGraphic" in2="blur-8"/>
      <feComposite operator="in" in="color-4"/>
      <feComposite operator="in" in2="SourceGraphic"/>
    </filter>
    <filter id="Rectangle_58" x="0" y="0" width="39.913" height="42" filterUnits="userSpaceOnUse">
      <feOffset dy="3" input="SourceAlpha"/>
      <feGaussianBlur stdDeviation="3" result="blur-9"/>
      <feFlood flood-opacity="0.161"/>
      <feComposite operator="in" in2="blur-9"/>
      <feComposite in="SourceGraphic"/>
    </filter>
    <filter id="Rectangle_58-2" x="0" y="0" width="39.913" height="42" filterUnits="userSpaceOnUse">
      <feOffset dy="3" input="SourceAlpha"/>
      <feGaussianBlur stdDeviation="3" result="blur-10"/>
      <feFlood flood-color="#fff" flood-opacity="0.161" result="color-5"/>
      <feComposite operator="out" in="SourceGraphic" in2="blur-10"/>
      <feComposite operator="in" in="color-5"/>
      <feComposite operator="in" in2="SourceGraphic"/>
    </filter>
    <filter id="Union_5" x="6" y="5" width="27.12" height="31.925" filterUnits="userSpaceOnUse">
      <feOffset dy="3" input="SourceAlpha"/>
      <feGaussianBlur stdDeviation="3" result="blur-11"/>
      <feFlood flood-opacity="0.161"/>
      <feComposite operator="in" in2="blur-11"/>
      <feComposite in="SourceGraphic"/>
    </filter>
    <filter id="Union_5-2" x="6" y="5" width="27.12" height="31.925" filterUnits="userSpaceOnUse">
      <feOffset dy="3" input="SourceAlpha"/>
      <feGaussianBlur stdDeviation="3" result="blur-12"/>
      <feFlood flood-color="#fff" flood-opacity="0.161" result="color-6"/>
      <feComposite operator="out" in="SourceGraphic" in2="blur-12"/>
      <feComposite operator="in" in="color-6"/>
      <feComposite operator="in" in2="SourceGraphic"/>
    </filter>
  </defs>
  <g id="Groupe_122" data-name="Groupe 122" transform="translate(-2107 -335)">
    <g id="Groupe_121" data-name="Groupe 121" transform="translate(2136.87 343.087)">
      <g data-type="innerShadowGroup">
        <g transform="matrix(1, 0, 0, 1, -29.87, -8.09)" filter="url(#Rectangle_59)">
          <rect id="Rectangle_59-3" data-name="Rectangle 59" width="3.13" height="4.174" rx="1" transform="translate(29.87 8.09)" fill="#fff"/>
        </g>
        <g transform="matrix(1, 0, 0, 1, -29.87, -8.09)" filter="url(#Rectangle_59-2)">
          <rect id="Rectangle_59-4" data-name="Rectangle 59" width="3.13" height="4.174" rx="1" transform="translate(29.87 8.09)" fill="#fff"/>
        </g>
      </g>
      <g data-type="innerShadowGroup">
        <g transform="matrix(1, 0, 0, 1, -29.87, -8.09)" filter="url(#Rectangle_67)">
          <rect id="Rectangle_67-3" data-name="Rectangle 67" width="3.13" height="4.174" rx="1" transform="translate(29.87 13.3)" fill="#fff"/>
        </g>
        <g transform="matrix(1, 0, 0, 1, -29.87, -8.09)" filter="url(#Rectangle_67-2)">
          <rect id="Rectangle_67-4" data-name="Rectangle 67" width="3.13" height="4.174" rx="1" transform="translate(29.87 13.3)" fill="#fff"/>
        </g>
      </g>
      <g data-type="innerShadowGroup">
        <g transform="matrix(1, 0, 0, 1, -29.87, -8.09)" filter="url(#Rectangle_68)">
          <rect id="Rectangle_68-3" data-name="Rectangle 68" width="3.13" height="4.174" rx="1" transform="translate(29.87 18.52)" fill="#fff"/>
        </g>
        <g transform="matrix(1, 0, 0, 1, -29.87, -8.09)" filter="url(#Rectangle_68-2)">
          <rect id="Rectangle_68-4" data-name="Rectangle 68" width="3.13" height="4.174" rx="1" transform="translate(29.87 18.52)" fill="#fff"/>
        </g>
      </g>
      <g data-type="innerShadowGroup">
        <g transform="matrix(1, 0, 0, 1, -29.87, -8.09)" filter="url(#Rectangle_69)">
          <rect id="Rectangle_69-3" data-name="Rectangle 69" width="3.13" height="4.174" rx="1" transform="translate(29.87 23.74)" fill="#fff"/>
        </g>
        <g transform="matrix(1, 0, 0, 1, -29.87, -8.09)" filter="url(#Rectangle_69-2)">
          <rect id="Rectangle_69-4" data-name="Rectangle 69" width="3.13" height="4.174" rx="1" transform="translate(29.87 23.74)" fill="#fff"/>
        </g>
      </g>
    </g>
    <g data-type="innerShadowGroup">
      <g transform="matrix(1, 0, 0, 1, 2107, 335)" filter="url(#Rectangle_58)">
        <rect id="Rectangle_58-3" data-name="Rectangle 58" width="21.913" height="24" rx="1" transform="translate(9 6)" fill="#fff"/>
      </g>
      <g transform="matrix(1, 0, 0, 1, 2107, 335)" filter="url(#Rectangle_58-2)">
        <rect id="Rectangle_58-4" data-name="Rectangle 58" width="21.913" height="24" rx="1" transform="translate(9 6)" fill="#fff"/>
      </g>
    </g>
    <g id="contacts" transform="translate(2122 346)">
      <g id="Groupe_103" data-name="Groupe 103" transform="translate(0 0)">
        <g data-type="innerShadowGroup">
          <g transform="matrix(1, 0, 0, 1, -15, -11)" filter="url(#Union_5)">
            <path id="Union_5-3" data-name="Union 5" d="M0,11.7A5.406,5.406,0,0,1,2.987,6.656a3.753,3.753,0,0,1-1.471-3.07A3.348,3.348,0,0,1,4.56,0,3.348,3.348,0,0,1,7.6,3.586a3.753,3.753,0,0,1-1.471,3.07A5.406,5.406,0,0,1,9.12,11.7c0,1.483-2.28,2.225-4.56,2.225S0,13.183,0,11.7Z" transform="translate(15 11)" fill="#89c34a"/>
          </g>
          <g transform="matrix(1, 0, 0, 1, -15, -11)" filter="url(#Union_5-2)">
            <path id="Union_5-4" data-name="Union 5" d="M0,11.7A5.406,5.406,0,0,1,2.987,6.656a3.753,3.753,0,0,1-1.471-3.07A3.348,3.348,0,0,1,4.56,0,3.348,3.348,0,0,1,7.6,3.586a3.753,3.753,0,0,1-1.471,3.07A5.406,5.406,0,0,1,9.12,11.7c0,1.483-2.28,2.225-4.56,2.225S0,13.183,0,11.7Z" transform="translate(15 11)" fill="#fff"/>
          </g>
        </g>
      </g>
    </g>
  </g>
</svg>
