<svg id="login" xmlns="http://www.w3.org/2000/svg" xmlns:xlink="http://www.w3.org/1999/xlink" width="30" height="27" viewBox="0 0 30 27">
  <defs>
    <filter id="Union_14" x="0" y="3" width="30" height="24" filterUnits="userSpaceOnUse">
      <feOffset dy="3" input="SourceAlpha"/>
      <feGaussianBlur stdDeviation="3" result="blur"/>
      <feFlood flood-opacity="0.161"/>
      <feComposite operator="in" in2="blur"/>
      <feComposite in="SourceGraphic"/>
    </filter>
    <filter id="Union_14-2" x="0" y="3" width="30" height="24" filterUnits="userSpaceOnUse">
      <feOffset dy="3" input="SourceAlpha"/>
      <feGaussianBlur stdDeviation="3" result="blur-2"/>
      <feFlood flood-color="#fff" flood-opacity="0.161" result="color"/>
      <feComposite operator="out" in="SourceGraphic" in2="blur-2"/>
      <feComposite operator="in" in="color"/>
      <feComposite operator="in" in2="SourceGraphic"/>
    </filter>
  </defs>
  <rect id="Rectangle_53" data-name="Rectangle 53" width="24" height="24" fill="#fff" opacity="0"/>
  <g id="Groupe_104" data-name="Groupe 104" transform="translate(-3070 -1155)">
    <path id="Soustraction_1" data-name="Soustraction 1" d="M18,18H0V0H18V2H3V16H18v2Z" transform="translate(3073 1158)" fill="#fff"/>
    <g data-type="innerShadowGroup">
      <g transform="matrix(1, 0, 0, 1, 3070, 1155)" filter="url(#Union_14)">
        <path id="Union_14-3" data-name="Union 14" d="M6.667,1.5H0v3H6.667V6L12,3,6.667,0Z" transform="translate(21 15) rotate(180)" fill="#fff"/>
      </g>
      <g transform="matrix(1, 0, 0, 1, 3070, 1155)" filter="url(#Union_14-2)">
        <path id="Union_14-4" data-name="Union 14" d="M6.667,1.5H0v3H6.667V6L12,3,6.667,0Z" transform="translate(21 15) rotate(180)" fill="#fff"/>
      </g>
    </g>
  </g>
</svg>
