<svg xmlns="http://www.w3.org/2000/svg" xmlns:xlink="http://www.w3.org/1999/xlink" width="34.178" height="38.607" viewBox="0 0 34.178 38.607">
  <defs>
    <filter id="Union_5" x="0" y="0" width="34.178" height="38.607" filterUnits="userSpaceOnUse">
      <feOffset dy="3" input="SourceAlpha"/>
      <feGaussianBlur stdDeviation="3" result="blur"/>
      <feFlood flood-opacity="0.161"/>
      <feComposite operator="in" in2="blur"/>
      <feComposite in="SourceGraphic"/>
    </filter>
    <filter id="Union_5-2" x="0" y="0" width="34.178" height="38.607" filterUnits="userSpaceOnUse">
      <feOffset dy="3" input="SourceAlpha"/>
      <feGaussianBlur stdDeviation="3" result="blur-2"/>
      <feFlood flood-color="#fff" flood-opacity="0.161" result="color"/>
      <feComposite operator="out" in="SourceGraphic" in2="blur-2"/>
      <feComposite operator="in" in="color"/>
      <feComposite operator="in" in2="SourceGraphic"/>
    </filter>
  </defs>
  <g id="pay" transform="translate(5 4)">
    <rect id="Rectangle_37" data-name="Rectangle 37" width="24" height="24" fill="#fff" opacity="0"/>
    <g data-type="innerShadowGroup">
      <g transform="matrix(1, 0, 0, 1, -5, -4)" filter="url(#Union_5)">
        <path id="Union_5-3" data-name="Union 5" d="M4,19.707a7.96,7.96,0,0,1,5.3-7.464A5.286,5.286,0,0,1,6.69,7.7a5.4,5.4,0,0,1,10.8,0,5.286,5.286,0,0,1-2.609,4.544,7.96,7.96,0,0,1,5.3,7.464c0,2.2-4.045,3.293-8.089,3.293S4,21.9,4,19.707Z" transform="translate(5 3.61)" fill="#fff"/>
      </g>
      <g transform="matrix(1, 0, 0, 1, -5, -4)" filter="url(#Union_5-2)">
        <path id="Union_5-4" data-name="Union 5" d="M4,19.707a7.96,7.96,0,0,1,5.3-7.464A5.286,5.286,0,0,1,6.69,7.7a5.4,5.4,0,0,1,10.8,0,5.286,5.286,0,0,1-2.609,4.544,7.96,7.96,0,0,1,5.3,7.464c0,2.2-4.045,3.293-8.089,3.293S4,21.9,4,19.707Z" transform="translate(5 3.61)" fill="#fff"/>
      </g>
    </g>
  </g>
</svg>
