<svg xmlns="http://www.w3.org/2000/svg" xmlns:xlink="http://www.w3.org/1999/xlink" width="36" height="34" viewBox="0 0 36 34">
  <defs>
    <filter id="reset" x="0" y="0" width="36" height="34" filterUnits="userSpaceOnUse">
      <feOffset dx="3" dy="3" input="SourceAlpha"/>
      <feGaussianBlur stdDeviation="3" result="blur"/>
      <feFlood flood-opacity="0.161"/>
      <feComposite operator="in" in2="blur"/>
      <feComposite in="SourceGraphic"/>
    </filter>
    <filter id="reset-2" x="0" y="0" width="36" height="34" filterUnits="userSpaceOnUse">
      <feOffset dx="3" dy="3" input="SourceAlpha"/>
      <feGaussianBlur stdDeviation="3" result="blur-2"/>
      <feFlood flood-color="#fff" flood-opacity="0.161" result="color"/>
      <feComposite operator="out" in="SourceGraphic" in2="blur-2"/>
      <feComposite operator="in" in="color"/>
      <feComposite operator="in" in2="SourceGraphic"/>
    </filter>
  </defs>
  <g data-type="innerShadowGroup">
    <g transform="matrix(1, 0, 0, 1, 0, 0)" filter="url(#reset)">
      <path id="reset-3" data-name="reset" d="M0,8A8.009,8.009,0,0,1,8,0V3a5,5,0,1,0,4.9,6H10l4-6,4,6H15.939A8,8,0,0,1,0,8Z" transform="translate(6 6)" fill="#fff"/>
    </g>
    <g transform="matrix(1, 0, 0, 1, 0, 0)" filter="url(#reset-2)">
      <path id="reset-4" data-name="reset" d="M0,8A8.009,8.009,0,0,1,8,0V3a5,5,0,1,0,4.9,6H10l4-6,4,6H15.939A8,8,0,0,1,0,8Z" transform="translate(6 6)" fill="#fff"/>
    </g>
  </g>
</svg>
