<svg xmlns="http://www.w3.org/2000/svg" xmlns:xlink="http://www.w3.org/1999/xlink" width="42" height="42" viewBox="0 0 42 42">
  <defs>
    <filter id="Exclusion_1" x="0" y="0" width="42" height="42" filterUnits="userSpaceOnUse">
      <feOffset dy="3" input="SourceAlpha"/>
      <feGaussianBlur stdDeviation="3" result="blur"/>
      <feFlood flood-opacity="0.161"/>
      <feComposite operator="in" in2="blur"/>
      <feComposite in="SourceGraphic"/>
    </filter>
    <filter id="Exclusion_1-2" x="0" y="0" width="42" height="42" filterUnits="userSpaceOnUse">
      <feOffset dy="3" input="SourceAlpha"/>
      <feGaussianBlur stdDeviation="3" result="blur-2"/>
      <feFlood flood-color="#fff" flood-opacity="0.161" result="color"/>
      <feComposite operator="out" in="SourceGraphic" in2="blur-2"/>
      <feComposite operator="in" in="color"/>
      <feComposite operator="in" in2="SourceGraphic"/>
    </filter>
  </defs>
  <g id="setting" transform="translate(9 6)">
    <g data-type="innerShadowGroup">
      <g transform="matrix(1, 0, 0, 1, -9, -6)" filter="url(#Exclusion_1)">
        <path id="Exclusion_1-3" data-name="Exclusion 1" d="M14.182,24H9.818V21.575a9.731,9.731,0,0,1-3.045-1.262L5.19,21.9,2.1,18.811l1.583-1.583a9.757,9.757,0,0,1-1.263-3.046H0V9.818H2.426a9.729,9.729,0,0,1,1.232-3L2.1,5.268,5.19,2.182,6.726,3.718A9.72,9.72,0,0,1,9.818,2.425V0h4.364V2.425a9.757,9.757,0,0,1,3.046,1.263L18.811,2.1,21.9,5.19,20.313,6.773a9.731,9.731,0,0,1,1.262,3.045H24v4.364H21.576a9.757,9.757,0,0,1-1.263,3.046L21.9,18.811,18.811,21.9l-1.583-1.583a9.757,9.757,0,0,1-3.046,1.263V24ZM12,7a5,5,0,1,0,5,5A5.006,5.006,0,0,0,12,7Z" transform="translate(9 6)" fill="#929292"/>
      </g>
      <g transform="matrix(1, 0, 0, 1, -9, -6)" filter="url(#Exclusion_1-2)">
        <path id="Exclusion_1-4" data-name="Exclusion 1" d="M14.182,24H9.818V21.575a9.731,9.731,0,0,1-3.045-1.262L5.19,21.9,2.1,18.811l1.583-1.583a9.757,9.757,0,0,1-1.263-3.046H0V9.818H2.426a9.729,9.729,0,0,1,1.232-3L2.1,5.268,5.19,2.182,6.726,3.718A9.72,9.72,0,0,1,9.818,2.425V0h4.364V2.425a9.757,9.757,0,0,1,3.046,1.263L18.811,2.1,21.9,5.19,20.313,6.773a9.731,9.731,0,0,1,1.262,3.045H24v4.364H21.576a9.757,9.757,0,0,1-1.263,3.046L21.9,18.811,18.811,21.9l-1.583-1.583a9.757,9.757,0,0,1-3.046,1.263V24ZM12,7a5,5,0,1,0,5,5A5.006,5.006,0,0,0,12,7Z" transform="translate(9 6)" fill="#fff"/>
      </g>
    </g>
  </g>
</svg>
