<svg xmlns="http://www.w3.org/2000/svg" xmlns:xlink="http://www.w3.org/1999/xlink" width="36" height="34" viewBox="0 0 36 34">
  <defs>
    <filter id="Union_9" x="0" y="0" width="36" height="26" filterUnits="userSpaceOnUse">
      <feOffset dy="3" input="SourceAlpha"/>
      <feGaussianBlur stdDeviation="3" result="blur"/>
      <feFlood flood-opacity="0.161"/>
      <feComposite operator="in" in2="blur"/>
      <feComposite in="SourceGraphic"/>
    </filter>
    <filter id="Union_9-2" x="0" y="0" width="36" height="26" filterUnits="userSpaceOnUse">
      <feOffset dy="3" input="SourceAlpha"/>
      <feGaussianBlur stdDeviation="3" result="blur-2"/>
      <feFlood flood-color="#fff" flood-opacity="0.161" result="color"/>
      <feComposite operator="out" in="SourceGraphic" in2="blur-2"/>
      <feComposite operator="in" in="color"/>
      <feComposite operator="in" in2="SourceGraphic"/>
    </filter>
    <filter id="Union_10" x="0" y="8" width="36" height="26" filterUnits="userSpaceOnUse">
      <feOffset dy="3" input="SourceAlpha"/>
      <feGaussianBlur stdDeviation="3" result="blur-3"/>
      <feFlood flood-opacity="0.161"/>
      <feComposite operator="in" in2="blur-3"/>
      <feComposite in="SourceGraphic"/>
    </filter>
    <filter id="Union_10-2" x="0" y="8" width="36" height="26" filterUnits="userSpaceOnUse">
      <feOffset dy="3" input="SourceAlpha"/>
      <feGaussianBlur stdDeviation="3" result="blur-4"/>
      <feFlood flood-color="#fff" flood-opacity="0.161" result="color-2"/>
      <feComposite operator="out" in="SourceGraphic" in2="blur-4"/>
      <feComposite operator="in" in="color-2"/>
      <feComposite operator="in" in2="SourceGraphic"/>
    </filter>
  </defs>
  <g id="transaction" transform="translate(6 2)">
    <rect id="Rectangle_39" data-name="Rectangle 39" width="24" height="24" fill="#fff" opacity="0"/>
    <g id="Groupe_100" data-name="Groupe 100" transform="translate(-3148 -997)">
      <g data-type="innerShadowGroup">
        <g transform="matrix(1, 0, 0, 1, 3142, 995)" filter="url(#Union_9)">
          <path id="Union_9-3" data-name="Union 9" d="M10,6H0V2H10V0l8,4L10,8Z" transform="translate(9 6)" fill="#fff"/>
        </g>
        <g transform="matrix(1, 0, 0, 1, 3142, 995)" filter="url(#Union_9-2)">
          <path id="Union_9-4" data-name="Union 9" d="M10,6H0V2H10V0l8,4L10,8Z" transform="translate(9 6)" fill="#fff"/>
        </g>
      </g>
      <g data-type="innerShadowGroup">
        <g transform="matrix(1, 0, 0, 1, 3142, 995)" filter="url(#Union_10)">
          <path id="Union_10-3" data-name="Union 10" d="M10,6H0V2H10V0l8,4L10,8Z" transform="translate(27 22) rotate(180)" fill="#fff"/>
        </g>
        <g transform="matrix(1, 0, 0, 1, 3142, 995)" filter="url(#Union_10-2)">
          <path id="Union_10-4" data-name="Union 10" d="M10,6H0V2H10V0l8,4L10,8Z" transform="translate(27 22) rotate(180)" fill="#fff"/>
        </g>
      </g>
    </g>
  </g>
</svg>
